<svg xmlns="http://www.w3.org/2000/svg" width="256" height="256" viewBox="0 0 256 256"><path fill="#512BD4" d="M128 0C96.234 0 66.52 11.95 43.11 33.327c-3.266 2.977-3.473 8.05-.46 11.31l18.59 20.07c2.14 2.3 5.49 2.7 8.01.99l23.75-16.27c11.08-7.59 25.13-7.59 36.21 0l23.75 16.27c2.52 1.71 5.87 1.31 8.01-.99l18.59-20.07c3.01-3.26 2.8-8.33-.46-11.31C189.48 11.95 159.766 0 128 0zm68.68 53.32c-3.27 2.97-8.34 2.76-11.31-.46L165.3 32.8c-2.3-2.14-2.7-5.49-.99-8.01L180.58 4.04c7.59-11.08 20.12-16.73 33.09-15.65C229.07-9.52 239.52 1.8 247.9 17.2c2.97 5.4 1.27 12.06-4.14 15.03l-22.36 12.43c-5.4 2.97-12.06 1.27-15.03-4.14l-8.69-15.4c-1.71-2.52-4.14-3.7-6.83-3.49-2.7.21-4.92 1.92-5.99 4.35l-16.16 32.87zM89.07 45.6c-2.97-3.26-8.04-3.47-11.31-.46L57.7 65.21c-2.14 2.3-5.49 2.7-8.01.99L25.94 49.93c-11.08-7.59-25.13-7.59-36.21 0L-24.02 66.2c-2.52 1.71-5.87 1.31-8.01-.99L-50.62 45.14c-3.01-3.26-8.08-3.05-11.31.46-13.88 15.04-20.4 33.4-20.4 51.91V200c0 30.93 25.07 56 56 56h128c30.93 0 56-25.07 56-56V100c0-17.65-6.07-35.34-17.32-49.88zM100 115.56h56v25h-56zm56 37.5h-56v25h56zm-68.44-3.35l-15.12 15.12c-2.93 2.93-2.93 7.68 0 10.6l15.12 15.13c2.93 2.93 7.68 2.93 10.6 0l15.13-15.12c2.93-2.93 2.93-7.68 0-10.6l-15.12-15.13c-2.92-2.93-7.67-2.93-10.61 0zm88.44 0l-15.12 15.12c-2.93 2.93-2.93 7.68 0 10.6l15.12 15.13c2.93 2.93 7.68 2.93 10.6 0l15.13-15.12c2.93-2.93 2.93-7.68 0-10.6l-15.12-15.13c-2.92-2.93-7.67-2.93-10.61 0z"/></svg>