<svg xmlns="http://www.w3.org/2000/svg" width="256" height="256" viewBox="0 0 256 256"><path fill="#F05032" d="m240.2 110.3l-28.5-28.5c-2-2-4.6-3.1-7.4-3.1h-56.6v23.2h41l-47.6 47.6l-21.8-21.8v-43.5l30-30c2-2 3.1-4.6 3.1-7.4c0-2.8-1.1-5.4-3.1-7.4l-15.8-15.8c-2-2-4.6-3.1-7.4-3.1s-5.4 1.1-7.4 3.1L128 28.5L28.5 128l99.5 99.5l15.8-15.8c2-2 3.1-4.6 3.1-7.4s-1.1-5.4-3.1-7.4l-30-30v-43.5l21.8-21.8l47.6 47.6h-41v23.2h56.6c2.8 0 5.4-1.1 7.4-3.1l28.5-28.5c4.1-4.1 4.1-10.7 0-14.8zM128 156.9c-15.9 0-28.9-12.9-28.9-28.9s12.9-28.9 28.9-28.9s28.9 12.9 28.9 28.9s-13 28.9-28.9 28.9z"/></svg>