<svg xmlns="http://www.w3.org/2000/svg" width="256" height="256" viewBox="0 0 256 256"><path fill="currentColor" d="M128 0C57.3 0 0 57.3 0 128c0 56.5 36.7 104.5 87.5 121.4c6.4 1.2 8.7-2.8 8.7-6.2c0-3.1-.1-11.2-.2-22c-35.6 7.7-43.1-17.2-43.1-17.2c-5.8-14.8-14.2-18.7-14.2-18.7c-11.6-7.9.9-7.8.9-7.8c12.8.9 19.6 13.2 19.6 13.2c11.4 19.5 29.9 13.9 37.2 10.6c1.2-8.2 4.5-13.9 8.1-17.1c-28.4-3.2-58.2-14.2-58.2-63.2c0-14 5-25.4 13.2-34.3c-1.3-3.2-5.7-16.2 1.3-33.8c0 0 10.7-3.4 35.1 13.1c10.2-2.8 21.2-4.2 32.1-4.2c10.9 0 21.9 1.4 32.1 4.2c24.4-16.5 35.1-13.1 35.1-13.1c7 17.6 2.6 30.6 1.3 33.8c8.2 8.9 13.2 20.3 13.2 34.3c0 49.1-29.8 60-58.3 63.2c4.6 4 8.6 11.9 8.6 24c0 17.3-.2 31.3-.2 35.5c0 3.4 2.3 7.4 8.8 6.2c50.8-16.9 87.5-64.9 87.5-121.4C256 57.3 198.7 0 128 0z"/></svg>