<svg xmlns="http://www.w3.org/2000/svg" width="256" height="256" viewBox="0 0 256 256"><path fill="#F89820" d="M166.75 220.59c-7.73 13.39-25.26 13.92-36.91 8.87a81.65 81.65 0 0 1-28.7-20.13c-28-31-15.7-74.1 27.28-76.32c5.96-.31 11.23 4.6 10.92 10.56c-.32 5.96-5.4 10.46-11.36 10.15c-20.75-1.07-33.6 20.37-14.47 34.6c20.73 15.4 51.64-15.66 31.74-34.1c-5.7-5.27-5.4-14.45.6-19.42c5.8-4.8 14.3-4.4 19.42.6c32.75 32 6.55 81.7-18.52 85.19"/><path fill="#5382A1" d="M89.25 35.41c7.73-13.39 25.26-13.92 36.91-8.87a81.65 81.65 0 0 1 28.7 20.13c28 31 15.7 74.1-27.28 76.32c-5.96.31-11.23-4.6-10.92-10.56c.32-5.96 5.4-10.46 11.36-10.15c20.75 1.07 33.6-20.37 14.47-34.6c-20.73-15.4-51.64 15.66-31.74 34.1c5.7 5.27 5.4 14.45-.6 19.42c-5.8 4.8-14.3 4.4-19.42-.6c-32.75-32-6.55-81.7 18.52-85.19m68.23 158.07c13.39 7.73 13.92 25.26 8.87 36.91a81.65 81.65 0 0 1-20.13 28.7c-31 28-74.1 15.7-76.32-27.28c-.31-5.96 4.6-11.23 10.56-10.92c5.96.32 10.46 5.4 10.15 11.36c-1.07 20.75 20.37 33.6 34.6 14.47c15.4-20.73-15.66-51.64-34.1-31.74c-5.27 5.7-14.45 5.4-19.42-.6c-4.8-5.8-4.4-14.3.6-19.42c32-32.75 81.7-6.55 85.19 18.52"/><path fill="#F89820" d="M98.52 86.8c1.55-8.48 11.53-12.7 17.5-7.3c9.1 8.23-6.43 23.3-15.53 15.07c-3.13-2.83-2.9-7.46.23-10.03c2.7-2.2 6.55-1.9 9.07 1.02c4.1 4.77-1.57 11.2-5.67 6.43c-1.4-1.63-1.3-3.72.2-5.1m-.3-44.18c5.4-2.8 11.53-1.22 14.83 3.9c13.8 21-12.87 39-28.9 24.1c-5-4.5-5.3-12.2-.6-17.1c4.5-4.6 11.4-4.8 16.5-.4c8.4 7.2-2.6 20.3-10.9 13.1c-2.8-2.5-2.6-6.6.4-8.7c2.6-1.9 6.2-1.7 8.3.6c3.4 3.9-1.3 9.4-4.7 5.5c-1.2-1.3-1.1-3.2.2-4.4c.5-.5 3.3-2.6 4.5-3.6"/></svg>