<svg xmlns="http://www.w3.org/2000/svg" width="256" height="256" viewBox="0 0 256 256"><path fill="#3776AB" d="M128 36c-30.82 0-53 20.08-53 43v42h50v-12H93v-30c0-12.42 12.18-20 28-20s28 7.58 28 20v84c0 23.1-17.2 35-40 35s-40-11.9-40-35v-10H20v10c0 33.1 26.9 56 69 56s69-22.9 69-56V43c0-22.92-22.18-43-56-43h-21z"/><path fill="#FFD43B" d="M128 220c30.82 0 53-20.08 53-43V93h-50v12h32v30c0 12.42-12.18 20-28 20s-28-7.58-28-20V49c0-23.1 17.2-35 40-35s40 11.9 40 35v10h49V49c0-33.1-26.9-56-69-56s-69 22.9-69 56v134c0 22.92 22.18 43 56 43h21z"/><path fill="#fff" d="M98 163a8 8 0 1 1-16 0a8 8 0 0 1 16 0m76-133a8 8 0 1 1-16 0a8 8 0 0 1 16 0"/></svg>