<svg xmlns="http://www.w3.org/2000/svg" width="256" height="256" viewBox="0 0 256 256"><path fill="#61DAFB" d="M128 36.6c-40.3 0-73 32.7-73 73s32.7 73 73 73s73-32.7 73-73s-32.7-73-73-73zm0 134c-33.7 0-61-27.3-61-61s27.3-61 61-61s61 27.3 61 61s-27.3 61-61 61z"/><ellipse cx="128" cy="109.6" fill="#61DAFB" rx="14" ry="34" transform="rotate(-30 128 109.6)"/><ellipse cx="128" cy="109.6" fill="#61DAFB" rx="14" ry="34" transform="rotate(30 128 109.6)"/><ellipse cx="128" cy="109.6" fill="#61DAFB" rx="34" ry="14"/><circle cx="128" cy="109.6" r="10" fill="#20232a"/></svg>