<svg xmlns="http://www.w3.org/2000/svg" width="256" height="256" viewBox="0 0 256 256"><path fill="#06B6D4" d="M128 32c-23.7 0-46.3 7.8-65.3 21.8c-19.7 14.5-32.7 36.3-32.7 61.2c0 24.9 13 46.7 32.7 61.2C81.7 190.2 104.3 198 128 198c23.7 0 46.3-7.8 65.3-21.8c19.7-14.5 32.7-36.3 32.7-61.2c0-24.9-13-46.7-32.7-61.2C174.3 39.8 151.7 32 128 32zm-58.2 56.4c11.2-8.3 25-13.1 40-13.1c15 0 28.8 4.8 40 13.1c11.2 8.3 18.2 20.3 18.2 34.6c0 14.3-7 26.3-18.2 34.6c-11.2 8.3-25 13.1-40 13.1c-15 0-28.8-4.8-40-13.1c-11.2-8.3-18.2-20.3-18.2-34.6c0-14.3 7-26.3 18.2-34.6z"/></svg>