<svg xmlns="http://www.w3.org/2000/svg" width="256" height="256" viewBox="0 0 256 256"><path fill="#3178C6" d="M0 0h256v256H0z"/><path fill="#fff" d="M121.17 93.5h27.56v23.77h-8.87v94.48h-9.82V117.27h-8.87zM64.63 211.75h28.53v-23.77h-6.42c-5.14 0-9.2-3.85-9.2-8.77v-23.33h15.62v-23.77H77.54V93.5h33.88V69.73H64.63zm101.59-24.1c11.13 0 18.02-7.8 18.02-18.12s-6.89-18.02-18.02-18.02s-18.02 7.8-18.02 18.02s6.89 18.12 18.02 18.12m0 6.64c-14.7 0-24.66-10.61-24.66-24.66s9.96-24.66 24.66-24.66s24.66 10.61 24.66 24.66s-9.96 24.66-24.66 24.66"/></svg>